<svg width="16" height="17" viewBox="0 0 16 17" fill="none" xmlns="http://www.w3.org/2000/svg">
<path fill-rule="evenodd" clip-rule="evenodd" d="M15.7947 1.99575C16.0679 1.72239 16.0679 1.27918 15.7947 1.00581C15.5212 0.732437 15.078 0.732437 14.8046 1.00581L8.29961 7.51083L1.79458 1.00581C1.52122 0.732437 1.07801 0.732437 0.804643 1.00581C0.531265 1.27918 0.531265 1.72239 0.804643 1.99575L7.30966 8.50078L0.804643 15.0057C0.531265 15.2792 0.531265 15.7224 0.804643 15.9958C1.07801 16.2691 1.52122 16.2691 1.79458 15.9958L8.29961 9.49074L14.8046 15.9958C15.078 16.2691 15.5212 16.2691 15.7947 15.9958C16.0679 15.7224 16.0679 15.2792 15.7947 15.0057L9.28957 8.50078L15.7947 1.99575Z" fill="black"/>
</svg>
