<svg width="458" height="469" viewBox="0 0 458 469" fill="none" xmlns="http://www.w3.org/2000/svg">
<path fill-rule="evenodd" clip-rule="evenodd" d="M256.343 156.449L291.736 121.056L298.68 146.973L259.218 186.435C254.336 191.317 254.336 199.232 259.218 204.113C264.099 208.995 272.014 208.995 276.895 204.113L317.631 163.377L322.173 166.882L305.667 183.387C300.786 188.269 300.786 196.183 305.667 201.065C310.549 205.946 318.464 205.946 323.345 201.065L342.13 182.28L363.379 198.675L328.667 233.387C323.785 238.268 323.785 246.183 328.667 251.064C333.548 255.946 341.463 255.946 346.345 251.064L390.892 206.517C393.507 203.902 394.721 200.418 394.535 196.996C394.586 195.76 394.454 194.495 394.117 193.237L381.212 145.074C381.082 144.59 380.925 144.12 380.744 143.666L451.763 72.6464C452.592 71.8174 453.281 70.9009 453.828 69.9266C454.048 69.6832 454.261 69.4293 454.465 69.165C458.682 63.6992 457.67 55.8497 452.204 51.6324L389.998 3.63549C387.918 2.03045 385.492 1.18288 383.053 1.05C379.402 0.637928 375.604 1.83188 372.804 4.63187L238.665 138.771C233.784 143.652 233.784 151.567 238.665 156.449C243.547 161.33 251.462 161.33 256.343 156.449ZM370.86 41.932L382.988 29.8034L426.036 63.0183L413.908 75.1469L370.86 41.932ZM312.518 100.274L353.036 59.756L396.084 92.9709L355.827 133.227L312.518 100.274Z" fill="#21201C"/>
<path d="M77.3288 117C95.278 117 109.829 102.449 109.829 84.5C109.829 66.5507 95.278 52 77.3288 52C59.3795 52 44.8288 66.5507 44.8288 84.5C44.8288 102.449 59.3795 117 77.3288 117Z" fill="#21201C"/>
<path d="M89.5904 167.915L151.029 211.981C148.729 218.4 151.227 225.751 157.315 229.345L204.762 257.354L232.963 398.201C234.405 405.404 240.953 410.283 248.087 409.828C248.817 409.941 249.566 410 250.329 410H403.329C404.044 410 404.748 409.948 405.436 409.848C411.99 409.609 417.769 404.914 419.113 398.202L445.4 266.911C446.972 259.059 441.881 251.419 434.029 249.847C426.177 248.274 418.537 253.365 416.964 261.218L392.981 381H259.094L231.881 245.084C230.88 240.086 227.421 236.207 223.014 234.452L172.058 204.372C171.796 204.217 171.531 204.072 171.264 203.935L97.8937 130.565C94.3306 127.002 89.4978 125 84.4587 125H80.494C72.7042 124.125 65.5954 129.62 64.5187 137.43L42.806 294.93C42.6115 296.342 42.627 297.734 42.8288 299.075L42.8288 375.583L3.71946 427.555C-1.09566 433.954 0.188164 443.045 6.58697 447.86C12.9858 452.675 22.0765 451.391 26.8916 444.992L42.8288 423.814V450.5C42.8288 458.508 49.3206 465 57.3288 465C65.3369 465 71.8288 458.508 71.8288 450.5L71.8288 297.5C71.8288 297.284 71.8241 297.07 71.8148 296.857L89.5904 167.915Z" fill="#21201C"/>
<path d="M278.829 441.5C278.829 456.688 266.517 469 251.329 469C236.141 469 223.829 456.688 223.829 441.5C223.829 426.312 236.141 414 251.329 414C266.517 414 278.829 426.312 278.829 441.5Z" fill="#21201C"/>
<path d="M396.329 469C411.517 469 423.829 456.688 423.829 441.5C423.829 426.312 411.517 414 396.329 414C381.141 414 368.829 426.312 368.829 441.5C368.829 456.688 381.141 469 396.329 469Z" fill="#21201C"/>
<path d="M337.829 279.5C337.829 272.596 332.232 267 325.329 267C318.425 267 312.829 272.596 312.829 279.5V316.27L307.992 311.433C303.728 307.169 296.814 307.169 292.55 311.433C288.286 315.697 288.286 322.611 292.55 326.875L314.611 348.937C315.212 349.935 315.948 350.842 316.795 351.633C317.03 351.922 317.281 352.201 317.55 352.47C321.784 356.704 328.629 356.734 332.9 352.561C333.035 352.439 333.168 352.312 333.299 352.182C333.395 352.085 333.49 351.988 333.582 351.888C334.004 351.517 334.401 351.117 334.77 350.693L358.299 327.164C362.563 322.899 362.563 315.985 358.299 311.721C354.035 307.457 347.121 307.457 342.857 311.721L337.829 316.749V279.5Z" fill="#21201C"/>
</svg>
