<svg width="20" height="15" viewBox="0 0 20 15" fill="none" xmlns="http://www.w3.org/2000/svg">
<path fill-rule="evenodd" clip-rule="evenodd" d="M0.833073 0.599609C0.409658 0.599609 0.0664062 0.942861 0.0664062 1.36628C0.0664062 1.78969 0.409658 2.13294 0.833073 2.13294H19.2331C19.6564 2.13294 19.9997 1.78969 19.9997 1.36628C19.9997 0.942861 19.6564 0.599609 19.2331 0.599609H0.833073ZM0.0664062 7.49961C0.0664062 7.0762 0.409658 6.73294 0.833073 6.73294H19.2331C19.6564 6.73294 19.9997 7.0762 19.9997 7.49961C19.9997 7.92302 19.6564 8.26628 19.2331 8.26628H0.833073C0.409658 8.26628 0.0664062 7.92302 0.0664062 7.49961ZM0.0664062 13.6329C0.0664062 13.2096 0.409658 12.8663 0.833073 12.8663H19.2331C19.6564 12.8663 19.9997 13.2096 19.9997 13.6329C19.9997 14.0563 19.6564 14.3996 19.2331 14.3996H0.833073C0.409658 14.3996 0.0664062 14.0563 0.0664062 13.6329Z" fill="black"/>
</svg>
