<svg width="457" height="469" viewBox="0 0 457 469" fill="none" xmlns="http://www.w3.org/2000/svg">
<path fill-rule="evenodd" clip-rule="evenodd" d="M255.538 155.478L290.931 120.085L297.876 146.002L258.413 185.465C253.531 190.346 253.531 198.261 258.413 203.142C263.295 208.024 271.209 208.024 276.091 203.142L316.827 162.407L321.368 165.911L304.863 182.416C299.981 187.298 299.981 195.213 304.863 200.094C309.744 204.976 317.659 204.976 322.54 200.094L341.325 181.309L362.574 197.704L327.862 232.416C322.981 237.297 322.981 245.212 327.862 250.094C332.744 254.975 340.658 254.975 345.54 250.094L390.088 205.546C392.702 202.932 393.916 199.448 393.73 196.025C393.782 194.789 393.649 193.524 393.312 192.266L380.407 144.104C380.277 143.619 380.121 143.149 379.94 142.695L450.959 71.6757C451.788 70.8467 452.476 69.9302 453.023 68.9559C453.244 68.7125 453.456 68.4586 453.66 68.1943C457.877 62.7285 456.865 54.879 451.4 50.6617L389.193 2.66479C387.113 1.05975 384.688 0.212172 382.249 0.0792964C378.598 -0.332775 374.8 0.861182 372 3.66117L237.861 137.8C232.979 142.682 232.979 150.596 237.861 155.478C242.742 160.359 250.657 160.359 255.538 155.478ZM370.055 40.9613L382.184 28.8327L425.231 62.0476L413.103 74.1762L370.055 40.9613ZM311.713 99.3034L352.231 58.7853L395.279 92.0002L355.023 132.256L311.713 99.3034Z" fill="#FF0199"/>
<path d="M76.5241 116.029C94.4733 116.029 109.024 101.479 109.024 83.5293C109.024 65.58 94.4733 51.0293 76.5241 51.0293C58.5748 51.0293 44.0241 65.58 44.0241 83.5293C44.0241 101.479 58.5748 116.029 76.5241 116.029Z" fill="#FF0199"/>
<path d="M88.7857 166.945L150.224 211.01C147.924 217.429 150.422 224.78 156.511 228.374L203.957 256.383L232.158 397.23C233.6 404.433 240.148 409.313 247.282 408.857C248.013 408.97 248.762 409.029 249.524 409.029H402.524C403.24 409.029 403.943 408.977 404.631 408.877C411.186 408.638 416.964 403.944 418.308 397.231L444.595 265.94C446.168 258.088 441.077 250.448 433.224 248.876C425.372 247.304 417.732 252.395 416.16 260.247L392.177 380.029H258.289L231.076 244.113C230.075 239.115 226.616 235.236 222.209 233.482L171.253 203.401C170.991 203.246 170.727 203.101 170.459 202.965L97.0891 129.594C93.5259 126.031 88.6931 124.029 83.654 124.029H79.6893C71.8995 123.155 64.7907 128.649 63.714 136.459L42.0014 293.96C41.8068 295.371 41.8223 296.763 42.0241 298.104L42.0241 374.612L2.91477 426.585C-1.90035 432.983 -0.616524 442.074 5.78228 446.889C12.1811 451.704 21.2718 450.421 26.0869 444.022L42.0241 422.843V449.529C42.0241 457.537 48.5159 464.029 56.5241 464.029C64.5322 464.029 71.0241 457.537 71.0241 449.529L71.0241 296.529C71.0241 296.314 71.0194 296.099 71.0101 295.886L88.7857 166.945Z" fill="#FF0199"/>
<path d="M278.024 440.529C278.024 455.717 265.712 468.029 250.524 468.029C235.336 468.029 223.024 455.717 223.024 440.529C223.024 425.341 235.336 413.029 250.524 413.029C265.712 413.029 278.024 425.341 278.024 440.529Z" fill="#FF0199"/>
<path d="M395.524 468.029C410.712 468.029 423.024 455.717 423.024 440.529C423.024 425.341 410.712 413.029 395.524 413.029C380.336 413.029 368.024 425.341 368.024 440.529C368.024 455.717 380.336 468.029 395.524 468.029Z" fill="#FF0199"/>
<path d="M337.024 278.529C337.024 271.626 331.428 266.029 324.524 266.029C317.621 266.029 312.024 271.626 312.024 278.529V315.299L307.188 310.462C302.923 306.198 296.01 306.198 291.745 310.462C287.481 314.727 287.481 321.641 291.745 325.905L313.807 347.966C314.407 348.964 315.144 349.872 315.99 350.663C316.225 350.951 316.477 351.231 316.745 351.499C320.979 355.733 327.824 355.763 332.095 351.591C332.231 351.468 332.364 351.342 332.494 351.211C332.591 351.115 332.685 351.017 332.777 350.918C333.199 350.546 333.596 350.147 333.965 349.722L357.494 326.193C361.759 321.929 361.759 315.015 357.494 310.75C353.23 306.486 346.316 306.486 342.052 310.75L337.024 315.778V278.529Z" fill="#FF0199"/>
</svg>
